<?xml version="1.0" encoding="UTF-8" standalone="no"?><svg xmlns:svg="http://www.w3.org/2000/svg" xmlns="http://www.w3.org/2000/svg" xmlns:xlink="http://www.w3.org/1999/xlink" version="1.0" width="120px" height="120px" viewBox="0 0 128 128" xml:space="preserve"><g><path d="M59.6 0h8v40h-8V0z" fill="#542354" fill-opacity="1"/><path d="M59.6 0h8v40h-8V0z" fill="#ddd3dd" fill-opacity="0.2" transform="rotate(30 64 64)"/><path d="M59.6 0h8v40h-8V0z" fill="#ddd3dd" fill-opacity="0.2" transform="rotate(60 64 64)"/><path d="M59.6 0h8v40h-8V0z" fill="#ddd3dd" fill-opacity="0.2" transform="rotate(90 64 64)"/><path d="M59.6 0h8v40h-8V0z" fill="#ddd3dd" fill-opacity="0.2" transform="rotate(120 64 64)"/><path d="M59.6 0h8v40h-8V0z" fill="#cbbdcb" fill-opacity="0.3" transform="rotate(150 64 64)"/><path d="M59.6 0h8v40h-8V0z" fill="#bba7bb" fill-opacity="0.4" transform="rotate(180 64 64)"/><path d="M59.6 0h8v40h-8V0z" fill="#a991a9" fill-opacity="0.5" transform="rotate(210 64 64)"/><path d="M59.6 0h8v40h-8V0z" fill="#987b98" fill-opacity="0.6" transform="rotate(240 64 64)"/><path d="M59.6 0h8v40h-8V0z" fill="#876587" fill-opacity="0.7" transform="rotate(270 64 64)"/><path d="M59.6 0h8v40h-8V0z" fill="#764f76" fill-opacity="0.8" transform="rotate(300 64 64)"/><path d="M59.6 0h8v40h-8V0z" fill="#653965" fill-opacity="0.9" transform="rotate(330 64 64)"/><animateTransform attributeName="transform" type="rotate" values="0 64 64;30 64 64;60 64 64;90 64 64;120 64 64;150 64 64;180 64 64;210 64 64;240 64 64;270 64 64;300 64 64;330 64 64" calcMode="discrete" dur="1560ms" repeatCount="indefinite"></animateTransform></g></svg>